<svg id="visual" viewBox="0 0 900 600" width="900" height="600" xmlns="http://www.w3.org/2000/svg" xmlns:xlink="http://www.w3.org/1999/xlink" version="1.1"><path d="M0 217L82 217L82 235L164 235L164 223L245 223L245 103L327 103L327 127L409 127L409 121L491 121L491 223L573 223L573 283L655 283L655 163L736 163L736 133L818 133L818 217L900 217L900 133L900 0L900 0L818 0L818 0L736 0L736 0L655 0L655 0L573 0L573 0L491 0L491 0L409 0L409 0L327 0L327 0L245 0L245 0L164 0L164 0L82 0L82 0L0 0Z" fill="#fa7268"></path><path d="M0 307L82 307L82 349L164 349L164 385L245 385L245 349L327 349L327 277L409 277L409 337L491 337L491 343L573 343L573 409L655 409L655 307L736 307L736 391L818 391L818 307L900 307L900 349L900 131L900 215L818 215L818 131L736 131L736 161L655 161L655 281L573 281L573 221L491 221L491 119L409 119L409 125L327 125L327 101L245 101L245 221L164 221L164 233L82 233L82 215L0 215Z" fill="#ea5e66"></path><path d="M0 463L82 463L82 445L164 445L164 445L245 445L245 493L327 493L327 427L409 427L409 463L491 463L491 445L573 445L573 475L655 475L655 397L736 397L736 451L818 451L818 427L900 427L900 457L900 347L900 305L818 305L818 389L736 389L736 305L655 305L655 407L573 407L573 341L491 341L491 335L409 335L409 275L327 275L327 347L245 347L245 383L164 383L164 347L82 347L82 305L0 305Z" fill="#d84a64"></path><path d="M0 535L82 535L82 535L164 535L164 541L245 541L245 565L327 565L327 559L409 559L409 523L491 523L491 535L573 535L573 553L655 553L655 517L736 517L736 553L818 553L818 523L900 523L900 511L900 455L900 425L818 425L818 449L736 449L736 395L655 395L655 473L573 473L573 443L491 443L491 461L409 461L409 425L327 425L327 491L245 491L245 443L164 443L164 443L82 443L82 461L0 461Z" fill="#c53762"></path><path d="M0 601L82 601L82 601L164 601L164 601L245 601L245 601L327 601L327 601L409 601L409 601L491 601L491 601L573 601L573 601L655 601L655 601L736 601L736 601L818 601L818 601L900 601L900 601L900 509L900 521L818 521L818 551L736 551L736 515L655 515L655 551L573 551L573 533L491 533L491 521L409 521L409 557L327 557L327 563L245 563L245 539L164 539L164 533L82 533L82 533L0 533Z" fill="#b0235f"></path></svg>