<?xml version="1.0" encoding="UTF-8"?>
<svg version="1.1" xmlns="http://www.w3.org/2000/svg" width="512" height="512">
<path d="M0 0 C168.96 0 337.92 0 512 0 C512 168.96 512 337.92 512 512 C343.04 512 174.08 512 0 512 C0 343.04 0 174.08 0 0 Z " fill="#5D2F86" transform="translate(0,0)"/>
<path d="M0 0 C10.49369963 -0.09102732 20.98712926 -0.16412995 31.48113728 -0.20724869 C36.35598445 -0.22796244 41.2305433 -0.25597648 46.10522461 -0.30175781 C50.82558639 -0.34580317 55.5456741 -0.36925831 60.26622581 -0.37950897 C62.05081677 -0.38679669 63.83539586 -0.40102092 65.61986732 -0.42292023 C88.22948073 -0.68889064 111.38229358 3.30757151 128.6875 19.125 C143.11684001 34.66428924 146.33272747 54.64533901 146.265625 75.05859375 C146.26753845 76.36474136 146.2694519 77.67088898 146.27142334 79.01661682 C146.27434658 81.7621848 146.27016917 84.50762132 146.26074219 87.25317383 C146.24936064 90.73348967 146.25591678 94.21349642 146.26788712 97.69380093 C146.27694525 101.06542179 146.27056068 104.43696418 146.265625 107.80859375 C146.26967346 109.03815292 146.27372192 110.2677121 146.27789307 111.53453064 C146.17625532 130.58340883 141.85508149 148.87669576 128.74609375 163.34765625 C114.37707721 176.94518197 94.57711801 182.20570914 75.26733398 182.11352539 C74.03641273 182.11374443 74.03641273 182.11374443 72.78062439 182.1139679 C70.10241941 182.11327828 67.42428639 182.10553104 64.74609375 182.09765625 C62.87565651 182.09578868 61.00521879 182.09436638 59.13478088 182.09336853 C54.23744328 182.08957002 49.34013584 182.0797628 44.44281006 182.06866455 C39.43518481 182.05839281 34.42755464 182.05385861 29.41992188 182.04882812 C19.61326594 182.03813788 9.80664021 182.02056297 0 182 C0 175.73 0 169.46 0 163 C8.58 163 17.16 163 26 163 C26 115.81 26 68.62 26 20 C17.42 20 8.84 20 0 20 C0 13.4 0 6.8 0 0 Z " fill="#FCFCFD" transform="translate(21,165)"/>
<path d="M0 0 C50.38553063 0 50.38553063 0 65.3203125 14.16015625 C70.69359621 20.04577631 73.07851581 26.35849063 75 34 C75.50660156 35.68416016 75.50660156 35.68416016 76.0234375 37.40234375 C77.4081341 42.97919579 77.30546884 48.53289553 77.30078125 54.25 C77.30506638 55.42151611 77.3093515 56.59303223 77.31376648 57.80004883 C77.31949264 60.27440752 77.32002273 62.74878304 77.31567383 65.22314453 C77.31253339 68.96026308 77.33592803 72.696574 77.36132812 76.43359375 C77.46569712 114.95073914 77.46569712 114.95073914 64.375 129.375 C46.67980582 145.70902539 22.3525254 142 0 142 C0 95.14 0 48.28 0 0 Z " fill="#5D2F86" transform="translate(69,185)"/>
<path d="M0 0 C12.06522686 9.51245058 17.83584571 24.48000978 20.75390625 39.0703125 C21.20990985 44.2687535 21.12503314 49.41501932 21.06640625 54.6328125 C13.80640625 54.6328125 6.54640625 54.6328125 -0.93359375 54.6328125 C-1.01609375 52.5703125 -1.09859375 50.5078125 -1.18359375 48.3828125 C-2.1631936 35.08440902 -6.7515417 23.54210805 -16.93359375 14.6328125 C-27.84579439 6.65550988 -41.77501425 5.1976166 -54.93359375 6.6328125 C-67.93420003 8.87018772 -78.24908717 14.82340426 -85.93359375 25.6328125 C-93.14677862 37.07170513 -94.39404471 49.64957737 -94.26171875 62.89453125 C-94.25984558 64.20637894 -94.25797241 65.51822662 -94.25604248 66.86982727 C-94.2514859 69.6220879 -94.23724108 72.37404832 -94.21484375 75.1262207 C-94.18648149 78.62579685 -94.17561746 82.12513951 -94.17116165 85.62481976 C-94.16597137 89.00642512 -94.15144417 92.3879531 -94.13671875 95.76953125 C-94.13246887 97.01143723 -94.12821899 98.2533432 -94.12384033 99.53288269 C-93.99238052 115.65896408 -92.10034738 129.93166874 -81.140625 142.546875 C-69.83842375 153.22895547 -56.81072757 155.03456082 -41.97265625 154.84765625 C-30.6926284 154.51021952 -20.10642318 151.33956215 -12.18359375 143.0078125 C-2.96177619 131.6463621 -1.75313491 118.70160246 -0.93359375 104.6328125 C6.32640625 104.6328125 13.58640625 104.6328125 21.06640625 104.6328125 C21.86323687 123.35833217 18.20739942 141.43855816 5.75390625 156.0703125 C-7.90489764 170.16823191 -24.76135506 175.34790158 -43.93652344 176.0378418 C-63.08752206 176.29999524 -80.70592 171.86332661 -95.43359375 159.1953125 C-96.96288552 157.70393706 -98.46531986 156.18429753 -99.93359375 154.6328125 C-100.56652344 153.97023438 -101.19945312 153.30765625 -101.8515625 152.625 C-115.15077545 137.18264677 -117.08450496 117.11190157 -117.1015625 97.61328125 C-117.10478517 96.26483629 -117.10814996 94.91639166 -117.11164856 93.56794739 C-117.11760322 90.75321646 -117.11949225 87.93851607 -117.11889648 85.1237793 C-117.11879505 81.55026002 -117.13244414 77.97694026 -117.14966869 74.40346813 C-117.16088916 71.62102899 -117.16281264 68.83863657 -117.16228676 66.05617714 C-117.16401103 64.10890345 -117.17478475 62.16164434 -117.18583679 60.21440125 C-117.13445153 39.98298862 -112.31971513 19.56584428 -97.93359375 4.6328125 C-70.91755969 -18.76866252 -29.26318917 -20.69114386 0 0 Z " fill="#FCFCFD" transform="translate(313.93359375,175.3671875)"/>
<path d="M0 0 C24.09 0 48.18 0 73 0 C73 6.6 73 13.2 73 20 C66.73 20 60.46 20 54 20 C54.00888245 21.4427832 54.01776489 22.88556641 54.0269165 24.37207031 C54.10829301 38.02361706 54.16834563 51.67514484 54.20724869 65.32687378 C54.22778126 72.34399224 54.25572106 79.36092836 54.30175781 86.37792969 C54.3462325 93.16013291 54.36919294 99.94214732 54.37950897 106.7244873 C54.38685295 109.30142177 54.40119289 111.87834687 54.42292023 114.4552002 C54.58873631 134.95135571 53.9368833 156.06499334 39.5625 172.375 C26.02145951 184.62264676 9.02545207 186.98173218 -8.48876953 186.1953125 C-23.11375616 185.05784514 -37.16360959 179.07985864 -47 168 C-56.52453703 154.41734311 -59.39575827 140.17899898 -59.125 123.8125 C-59.08375 120.244375 -59.0425 116.67625 -59 113 C-51.74 113 -44.48 113 -37 113 C-36.95101563 114.5675 -36.90203125 116.135 -36.8515625 117.75 C-36.77648685 119.83334942 -36.70094112 121.91668194 -36.625 124 C-36.5940625 125.02996094 -36.563125 126.05992187 -36.53125 127.12109375 C-36.09612468 138.50687307 -33.94565155 149.67316747 -25.375 157.875 C-15.83597729 165.3610976 -4.70784347 166.37739335 7 165 C14.37667221 163.32732783 20.85045202 159.53128516 25.2109375 153.2578125 C30.32536216 143.9903212 31.44682351 133.4745872 31.43237305 123.08105469 C31.4425647 121.95764175 31.45275635 120.83422882 31.46325684 119.67677307 C31.49315783 116.00842147 31.50261775 112.34033196 31.51171875 108.671875 C31.52858239 106.11068876 31.54673487 103.54951071 31.56611633 100.98834229 C31.60861721 94.96449277 31.63823766 88.94071651 31.66143972 82.91677308 C31.6886172 76.05076672 31.73252013 69.18489785 31.77772844 62.31899023 C31.87024111 48.21271932 31.93986655 34.1064442 32 20 C21.44 20 10.88 20 0 20 C0 13.4 0 6.8 0 0 Z " fill="#FCFBFC" transform="translate(418,165)"/>
<path d="M0 0 C0.33 0 0.66 0 1 0 C1 13.53 1 27.06 1 41 C-12.53 41 -26.06 41 -40 41 C-36.77794772 39.38897386 -33.66489916 38.09649079 -30.3125 36.8125 C-16.32964928 30.99481758 -7.86955879 20.70813891 -2 7 C-1.17794005 4.65968578 -0.55034658 2.42152494 0 0 Z " fill="#000000" transform="translate(511,471)"/>
<path d="M0 0 C1.61102614 3.22205228 2.90350921 6.33510084 4.1875 9.6875 C10.00518242 23.67035072 20.29186109 32.13044121 34 38 C36.34031422 38.82205995 38.57847506 39.44965342 41 40 C41 40.33 41 40.66 41 41 C27.47 41 13.94 41 0 41 C0 27.47 0 13.94 0 0 Z " fill="#000000" transform="translate(0,471)"/>
<path d="M0 0 C13.53 0 27.06 0 41 0 C41 13.53 41 27.06 41 41 C39.38897386 37.77794772 38.09649079 34.66489916 36.8125 31.3125 C30.99481758 17.32964928 20.70813891 8.86955879 7 3 C4.65968578 2.17794005 2.42152494 1.55034658 0 1 C0 0.67 0 0.34 0 0 Z " fill="#000000" transform="translate(471,0)"/>
<path d="M0 0 C13.53 0 27.06 0 41 0 C37.77794772 1.61102614 34.66489916 2.90350921 31.3125 4.1875 C17.32964928 10.00518242 8.86955879 20.29186109 3 34 C2.17794005 36.34031422 1.55034658 38.57847506 1 41 C0.67 41 0.34 41 0 41 C0 27.47 0 13.94 0 0 Z " fill="#000000" transform="translate(0,0)"/>
</svg>
