<svg width="1080" height="1081" viewBox="0 0 1080 1081" fill="none" xmlns="http://www.w3.org/2000/svg">
<rect width="1080" height="1080" transform="translate(0 0.774902)" fill="white"/>
<path d="M664.587 516.944C668.121 517.802 669.888 518.231 672.786 518.428C687.657 519.438 705.681 505.536 708.483 490.897C709.029 488.044 709.039 487.524 709.058 486.482C709.333 471.735 707.825 456.96 704.53 442.48C698.232 414.805 685.581 388.964 667.57 366.989C649.56 345.014 626.682 327.505 600.735 315.838C574.788 304.171 546.481 298.665 518.038 299.752C489.596 300.84 461.794 308.492 436.82 322.106C411.846 335.72 390.38 354.925 374.11 378.21C362.097 395.404 353.159 414.477 347.633 434.582C345.675 441.705 344.145 448.958 343.059 456.302C340.885 470.999 340.517 485.854 341.927 500.544C342.026 501.579 342.076 502.097 342.838 504.896C346.755 519.276 365.788 531.752 380.537 529.606C383.408 529.188 385.135 528.626 388.59 527.502C395.679 525.194 399.223 524.04 400.957 523.252C414.558 517.07 417.429 513.428 420.268 498.761C420.63 496.89 421.21 489.58 422.371 474.96C422.554 472.662 422.814 470.367 423.153 468.079C425.238 453.983 430.238 440.491 437.817 428.453C438.691 427.065 439.599 425.696 440.541 424.348C449.652 411.308 461.673 400.553 475.659 392.929C489.644 385.305 505.213 381.02 521.141 380.411C537.069 379.802 552.921 382.886 567.451 389.419C581.981 395.953 594.793 405.758 604.879 418.064C614.965 430.37 622.05 444.841 625.576 460.339C626.09 462.598 626.527 464.869 626.885 467.15C629.165 481.637 630.304 488.881 630.809 490.719C634.764 505.119 637.903 508.527 651.929 513.651C653.719 514.305 657.342 515.184 664.587 516.944Z" fill="url(#paint0_linear_64_239)"/>
<rect x="341.09" y="456.72" width="80.7864" height="218.532" rx="16" fill="url(#paint1_linear_64_239)"/>
<rect x="341.09" y="680.224" width="79.8909" height="216.226" rx="16" transform="rotate(-90 341.09 680.224)" fill="url(#paint2_linear_64_239)"/>
<path d="M509.5 342.098C506.973 319.267 523.512 298.145 546.328 300.808C559.162 302.306 571.845 305.214 584.163 309.508C609.641 318.389 632.927 332.983 652.369 352.256C671.811 371.528 686.932 395.007 696.662 421.027C706.391 447.047 710.491 474.971 708.669 502.821C706.847 530.67 699.149 557.762 686.12 582.176C673.091 606.59 655.051 627.728 633.278 644.092C611.505 660.456 586.533 671.645 560.132 676.866C547.203 679.422 534.086 680.517 521.008 680.157C498.246 679.53 484.865 656.586 490.304 634.475C495.885 611.787 519.602 599.019 542.627 595.058C543.437 594.919 544.246 594.77 545.054 594.61C559.838 591.686 573.823 585.421 586.016 576.257C598.209 567.093 608.311 555.256 615.607 541.584C622.903 527.912 627.214 512.74 628.235 497.145C629.255 481.549 626.959 465.911 621.511 451.34C616.062 436.769 607.594 423.621 596.707 412.828C585.819 402.036 572.779 393.863 558.511 388.889C557.626 388.581 556.737 388.285 555.845 388.002C533.683 380.969 512.059 365.208 509.5 342.098Z" fill="#5D2F86"/>
<circle cx="438.976" cy="757.952" r="4" fill="#5D2F86" fill-opacity="0.38"/>
<circle cx="599.976" cy="757.952" r="4" fill="#5D2F86" fill-opacity="0.38"/>
<path d="M251.024 772.384C249.08 772.384 247.268 772.072 245.588 771.448C243.932 770.8 242.492 769.888 241.268 768.712C240.044 767.536 239.084 766.156 238.388 764.572C237.716 762.988 237.38 761.248 237.38 759.352C237.38 757.456 237.716 755.716 238.388 754.132C239.084 752.548 240.044 751.168 241.268 749.992C242.516 748.816 243.968 747.916 245.624 747.292C247.28 746.644 249.092 746.32 251.06 746.32C253.244 746.32 255.212 746.704 256.964 747.472C258.74 748.216 260.228 749.32 261.428 750.784L257.684 754.24C256.82 753.256 255.86 752.524 254.804 752.044C253.748 751.54 252.596 751.288 251.348 751.288C250.172 751.288 249.092 751.48 248.108 751.864C247.124 752.248 246.272 752.8 245.552 753.52C244.832 754.24 244.268 755.092 243.86 756.076C243.476 757.06 243.284 758.152 243.284 759.352C243.284 760.552 243.476 761.644 243.86 762.628C244.268 763.612 244.832 764.464 245.552 765.184C246.272 765.904 247.124 766.456 248.108 766.84C249.092 767.224 250.172 767.416 251.348 767.416C252.596 767.416 253.748 767.176 254.804 766.696C255.86 766.192 256.82 765.436 257.684 764.428L261.428 767.884C260.228 769.348 258.74 770.464 256.964 771.232C255.212 772 253.232 772.384 251.024 772.384ZM277.079 772.384C275.087 772.384 273.239 772.06 271.535 771.412C269.855 770.764 268.391 769.852 267.143 768.676C265.919 767.5 264.959 766.12 264.263 764.536C263.591 762.952 263.255 761.224 263.255 759.352C263.255 757.48 263.591 755.752 264.263 754.168C264.959 752.584 265.931 751.204 267.179 750.028C268.427 748.852 269.891 747.94 271.571 747.292C273.251 746.644 275.075 746.32 277.043 746.32C279.035 746.32 280.859 746.644 282.515 747.292C284.195 747.94 285.647 748.852 286.871 750.028C288.119 751.204 289.091 752.584 289.787 754.168C290.483 755.728 290.831 757.456 290.831 759.352C290.831 761.224 290.483 762.964 289.787 764.572C289.091 766.156 288.119 767.536 286.871 768.712C285.647 769.864 284.195 770.764 282.515 771.412C280.859 772.06 279.047 772.384 277.079 772.384ZM277.043 767.416C278.171 767.416 279.203 767.224 280.139 766.84C281.099 766.456 281.939 765.904 282.659 765.184C283.379 764.464 283.931 763.612 284.315 762.628C284.723 761.644 284.927 760.552 284.927 759.352C284.927 758.152 284.723 757.06 284.315 756.076C283.931 755.092 283.379 754.24 282.659 753.52C281.963 752.8 281.135 752.248 280.175 751.864C279.215 751.48 278.171 751.288 277.043 751.288C275.915 751.288 274.871 751.48 273.911 751.864C272.975 752.248 272.147 752.8 271.427 753.52C270.707 754.24 270.143 755.092 269.735 756.076C269.351 757.06 269.159 758.152 269.159 759.352C269.159 760.528 269.351 761.62 269.735 762.628C270.143 763.612 270.695 764.464 271.391 765.184C272.111 765.904 272.951 766.456 273.911 766.84C274.871 767.224 275.915 767.416 277.043 767.416ZM295.214 771.952V746.752H300.038L314.906 764.896H312.566V746.752H318.326V771.952H313.538L298.634 753.808H300.974V771.952H295.214ZM324.288 771.952V746.752H329.112L343.98 764.896H341.64V746.752H347.4V771.952H342.612L327.708 753.808H330.048V771.952H324.288ZM358.726 756.904H370.858V761.44H358.726V756.904ZM359.158 767.272H372.874V771.952H353.362V746.752H372.406V751.432H359.158V767.272ZM389.574 772.384C387.63 772.384 385.818 772.072 384.138 771.448C382.482 770.8 381.042 769.888 379.818 768.712C378.594 767.536 377.634 766.156 376.938 764.572C376.266 762.988 375.93 761.248 375.93 759.352C375.93 757.456 376.266 755.716 376.938 754.132C377.634 752.548 378.594 751.168 379.818 749.992C381.066 748.816 382.518 747.916 384.174 747.292C385.83 746.644 387.642 746.32 389.61 746.32C391.794 746.32 393.762 746.704 395.514 747.472C397.29 748.216 398.778 749.32 399.978 750.784L396.234 754.24C395.37 753.256 394.41 752.524 393.354 752.044C392.298 751.54 391.146 751.288 389.898 751.288C388.722 751.288 387.642 751.48 386.658 751.864C385.674 752.248 384.822 752.8 384.102 753.52C383.382 754.24 382.818 755.092 382.41 756.076C382.026 757.06 381.834 758.152 381.834 759.352C381.834 760.552 382.026 761.644 382.41 762.628C382.818 763.612 383.382 764.464 384.102 765.184C384.822 765.904 385.674 766.456 386.658 766.84C387.642 767.224 388.722 767.416 389.898 767.416C391.146 767.416 392.298 767.176 393.354 766.696C394.41 766.192 395.37 765.436 396.234 764.428L399.978 767.884C398.778 769.348 397.29 770.464 395.514 771.232C393.762 772 391.782 772.384 389.574 772.384ZM408.891 771.952V751.504H400.827V746.752H422.787V751.504H414.723V771.952H408.891Z" fill="#5D2F86"/>
<path d="M457.964 771.952V746.752H463.796V767.2H476.432V771.952H457.964ZM485.054 756.904H497.186V761.44H485.054V756.904ZM485.486 767.272H499.202V771.952H479.69V746.752H498.734V751.432H485.486V767.272ZM500.53 771.952L511.762 746.752H517.522L528.79 771.952H522.67L513.454 749.704H515.758L506.506 771.952H500.53ZM506.146 766.552L507.694 762.124H520.654L522.238 766.552H506.146ZM531.405 771.952V746.752H542.313C544.569 746.752 546.513 747.124 548.145 747.868C549.777 748.588 551.037 749.632 551.925 751C552.813 752.368 553.257 754 553.257 755.896C553.257 757.768 552.813 759.388 551.925 760.756C551.037 762.1 549.777 763.132 548.145 763.852C546.513 764.572 544.569 764.932 542.313 764.932H534.645L537.237 762.376V771.952H531.405ZM547.425 771.952L541.125 762.808H547.353L553.725 771.952H547.425ZM537.237 763.024L534.645 760.288H541.989C543.789 760.288 545.133 759.904 546.021 759.136C546.909 758.344 547.353 757.264 547.353 755.896C547.353 754.504 546.909 753.424 546.021 752.656C545.133 751.888 543.789 751.504 541.989 751.504H534.645L537.237 748.732V763.024ZM557.878 771.952V746.752H562.702L577.57 764.896H575.23V746.752H580.99V771.952H576.202L561.298 753.808H563.638V771.952H557.878Z" fill="#5D2F86"/>
<path d="M631.132 772.384C629.14 772.384 627.304 772.072 625.624 771.448C623.968 770.8 622.516 769.888 621.268 768.712C620.044 767.536 619.084 766.156 618.388 764.572C617.716 762.988 617.38 761.248 617.38 759.352C617.38 757.456 617.716 755.716 618.388 754.132C619.084 752.548 620.056 751.168 621.304 749.992C622.552 748.816 624.016 747.916 625.696 747.292C627.376 746.644 629.224 746.32 631.24 746.32C633.472 746.32 635.476 746.692 637.252 747.436C639.052 748.18 640.564 749.26 641.788 750.676L638.044 754.132C637.132 753.172 636.136 752.464 635.056 752.008C633.976 751.528 632.8 751.288 631.528 751.288C630.304 751.288 629.188 751.48 628.18 751.864C627.172 752.248 626.296 752.8 625.552 753.52C624.832 754.24 624.268 755.092 623.86 756.076C623.476 757.06 623.284 758.152 623.284 759.352C623.284 760.528 623.476 761.608 623.86 762.592C624.268 763.576 624.832 764.44 625.552 765.184C626.296 765.904 627.16 766.456 628.144 766.84C629.152 767.224 630.256 767.416 631.456 767.416C632.608 767.416 633.724 767.236 634.804 766.876C635.908 766.492 636.976 765.856 638.008 764.968L641.32 769.18C639.952 770.212 638.356 771.004 636.532 771.556C634.732 772.108 632.932 772.384 631.132 772.384ZM635.992 768.424V758.956H641.32V769.18L635.992 768.424ZM646.737 771.952V746.752H657.645C659.901 746.752 661.845 747.124 663.477 747.868C665.109 748.588 666.369 749.632 667.257 751C668.145 752.368 668.589 754 668.589 755.896C668.589 757.768 668.145 759.388 667.257 760.756C666.369 762.1 665.109 763.132 663.477 763.852C661.845 764.572 659.901 764.932 657.645 764.932H649.977L652.569 762.376V771.952H646.737ZM662.757 771.952L656.457 762.808H662.685L669.057 771.952H662.757ZM652.569 763.024L649.977 760.288H657.321C659.121 760.288 660.465 759.904 661.353 759.136C662.241 758.344 662.685 757.264 662.685 755.896C662.685 754.504 662.241 753.424 661.353 752.656C660.465 751.888 659.121 751.504 657.321 751.504H649.977L652.569 748.732V763.024ZM685.45 772.384C683.458 772.384 681.61 772.06 679.906 771.412C678.226 770.764 676.762 769.852 675.514 768.676C674.29 767.5 673.33 766.12 672.634 764.536C671.962 762.952 671.626 761.224 671.626 759.352C671.626 757.48 671.962 755.752 672.634 754.168C673.33 752.584 674.302 751.204 675.55 750.028C676.798 748.852 678.262 747.94 679.942 747.292C681.622 746.644 683.446 746.32 685.414 746.32C687.406 746.32 689.23 746.644 690.886 747.292C692.566 747.94 694.018 748.852 695.242 750.028C696.49 751.204 697.462 752.584 698.158 754.168C698.854 755.728 699.202 757.456 699.202 759.352C699.202 761.224 698.854 762.964 698.158 764.572C697.462 766.156 696.49 767.536 695.242 768.712C694.018 769.864 692.566 770.764 690.886 771.412C689.23 772.06 687.418 772.384 685.45 772.384ZM685.414 767.416C686.542 767.416 687.574 767.224 688.51 766.84C689.47 766.456 690.31 765.904 691.03 765.184C691.75 764.464 692.302 763.612 692.686 762.628C693.094 761.644 693.298 760.552 693.298 759.352C693.298 758.152 693.094 757.06 692.686 756.076C692.302 755.092 691.75 754.24 691.03 753.52C690.334 752.8 689.506 752.248 688.546 751.864C687.586 751.48 686.542 751.288 685.414 751.288C684.286 751.288 683.242 751.48 682.282 751.864C681.346 752.248 680.518 752.8 679.798 753.52C679.078 754.24 678.514 755.092 678.106 756.076C677.722 757.06 677.53 758.152 677.53 759.352C677.53 760.528 677.722 761.62 678.106 762.628C678.514 763.612 679.066 764.464 679.762 765.184C680.482 765.904 681.322 766.456 682.282 766.84C683.242 767.224 684.286 767.416 685.414 767.416ZM708.789 771.952L700.545 746.752H706.593L713.757 769.072H710.733L718.221 746.752H723.621L730.821 769.072H727.905L735.249 746.752H740.829L732.585 771.952H726.321L719.949 752.368H721.605L715.053 771.952H708.789Z" fill="#5D2F86"/>
<path d="M274.782 414.189L381.683 444.183L488.976 414.189V527.347L381.683 556.533L284.759 532.145L274.782 414.189Z" fill="white"/>
<path d="M452.342 449.542L383.778 477.179L295.624 449.542" stroke="url(#paint3_linear_64_239)" stroke-width="12" stroke-linecap="round"/>
<path d="M452.342 479.542L381.633 507.21L262.782 470.542" stroke="url(#paint4_linear_64_239)" stroke-width="12" stroke-linecap="round"/>
<path d="M452.342 509.543L382.706 534.486L295.624 509.543" stroke="url(#paint5_linear_64_239)" stroke-width="12" stroke-linecap="round"/>
<circle cx="274.782" cy="441.494" r="7" fill="#5D2F86"/>
<circle cx="242.037" cy="462.846" r="7" fill="#5D2F86"/>
<circle cx="274.782" cy="502.846" r="7" fill="#5D2F86"/>
<path d="M464.665 432.002L467.29 424.51C472.285 425.895 476.204 427.864 479.048 430.416C481.892 432.932 483.897 435.867 485.063 439.221C486.23 442.538 486.813 446.111 486.813 449.939V461.205C486.813 463.648 487.178 465.781 487.907 467.604C488.636 469.426 489.785 470.848 491.353 471.869C492.92 472.854 494.944 473.346 497.423 473.346V480.564C492.027 480.564 487.634 479.726 484.243 478.049C480.853 476.335 478.373 474.02 476.806 471.104C475.274 468.15 474.509 464.851 474.509 461.205V449.939C474.509 447.132 474.217 444.525 473.634 442.119C473.05 439.713 472.03 437.635 470.571 435.885C469.149 434.135 467.181 432.84 464.665 432.002ZM467.29 531.752L464.665 524.205C467.181 523.33 469.149 522.018 470.571 520.268C471.993 518.518 472.996 516.439 473.579 514.033C474.199 511.663 474.509 509.075 474.509 506.268V495.111C474.509 491.393 475.274 488.075 476.806 485.158C478.373 482.242 480.853 479.945 484.243 478.268C487.634 476.554 492.027 475.697 497.423 475.697V482.916C493.704 482.916 491.006 484.028 489.329 486.252C487.652 488.439 486.813 491.393 486.813 495.111V506.268C486.813 510.096 486.23 513.669 485.063 516.986C483.897 520.34 481.892 523.275 479.048 525.791C476.204 528.343 472.285 530.33 467.29 531.752Z" fill="url(#paint6_radial_64_239)"/>
<path d="M381.886 458.934L381.886 533.58" stroke="white" stroke-width="24" stroke-linecap="round" stroke-linejoin="round"/>
<path d="M381.886 464.284L382.095 536.354" stroke="#5D2F86" stroke-width="6" stroke-linecap="round" stroke-linejoin="round"/>
<defs>
<linearGradient id="paint0_linear_64_239" x1="701.211" y1="446.865" x2="130.188" y2="575.518" gradientUnits="userSpaceOnUse">
<stop stop-color="#5D2F86"/>
<stop offset="1" stop-color="#846BAF"/>
</linearGradient>
<linearGradient id="paint1_linear_64_239" x1="381.483" y1="474.578" x2="381.483" y2="921.112" gradientUnits="userSpaceOnUse">
<stop stop-color="#724996"/>
<stop offset="1" stop-color="#846BAF"/>
</linearGradient>
<linearGradient id="paint2_linear_64_239" x1="381.035" y1="680.224" x2="381.035" y2="1012.5" gradientUnits="userSpaceOnUse">
<stop stop-color="#5D2F86"/>
<stop offset="1" stop-color="#846BAF"/>
</linearGradient>
<linearGradient id="paint3_linear_64_239" x1="262.348" y1="447.543" x2="263.57" y2="471.12" gradientUnits="userSpaceOnUse">
<stop stop-color="#5D2F86"/>
<stop offset="1" stop-color="#846BAF"/>
</linearGradient>
<linearGradient id="paint4_linear_64_239" x1="216.471" y1="477.542" x2="217.255" y2="497.269" gradientUnits="userSpaceOnUse">
<stop stop-color="#5D2F86"/>
<stop offset="1" stop-color="#846BAF"/>
</linearGradient>
<linearGradient id="paint5_linear_64_239" x1="262.348" y1="507.543" x2="263.445" y2="528.717" gradientUnits="userSpaceOnUse">
<stop stop-color="#5D2F86"/>
<stop offset="1" stop-color="#846BAF"/>
</linearGradient>
<radialGradient id="paint6_radial_64_239" cx="0" cy="0" r="1" gradientUnits="userSpaceOnUse" gradientTransform="translate(812.058 453.677) rotate(174.004) scale(476.596 396.41)">
<stop stop-color="#5D2F86"/>
<stop offset="1" stop-color="#846BAF"/>
</radialGradient>
</defs>
</svg>
